<mxfile host="app.diagrams.net" agent="Mozilla/5.0 (Macintosh; Intel Mac OS X 10_15_7) AppleWebKit/605.1.15 (KHTML, like Gecko) Version/18.0 Safari/605.1.15" version="24.7.17">
  <diagram name="Page-1" id="5hh5KHy4vYde5BKXPjIa">
    <mxGraphModel dx="1556" dy="1801" grid="1" gridSize="10" guides="1" tooltips="1" connect="1" arrows="1" fold="1" page="1" pageScale="1" pageWidth="827" pageHeight="1169" math="0" shadow="0">
      <root>
        <mxCell id="0" />
        <mxCell id="1" parent="0" />
        <mxCell id="_ZcJm6ZcUghAxAI16LKx-3" value="PERSON" style="whiteSpace=wrap;html=1;align=center;" vertex="1" parent="1">
          <mxGeometry x="470" y="-80" width="100" height="40" as="geometry" />
        </mxCell>
        <mxCell id="_ZcJm6ZcUghAxAI16LKx-4" value="CUSTOMER" style="whiteSpace=wrap;html=1;align=center;" vertex="1" parent="1">
          <mxGeometry x="180" y="90" width="100" height="40" as="geometry" />
        </mxCell>
        <mxCell id="_ZcJm6ZcUghAxAI16LKx-5" value="EMPLOYEE" style="whiteSpace=wrap;html=1;align=center;" vertex="1" parent="1">
          <mxGeometry x="735" y="310" width="100" height="40" as="geometry" />
        </mxCell>
        <mxCell id="_ZcJm6ZcUghAxAI16LKx-6" value="MANAGER" style="whiteSpace=wrap;html=1;align=center;" vertex="1" parent="1">
          <mxGeometry x="860" y="560" width="100" height="40" as="geometry" />
        </mxCell>
        <mxCell id="_ZcJm6ZcUghAxAI16LKx-7" value="DRIVER" style="whiteSpace=wrap;html=1;align=center;" vertex="1" parent="1">
          <mxGeometry x="590" y="570" width="100" height="40" as="geometry" />
        </mxCell>
        <mxCell id="_ZcJm6ZcUghAxAI16LKx-8" value="ORDER" style="whiteSpace=wrap;html=1;align=center;" vertex="1" parent="1">
          <mxGeometry x="180" y="340" width="100" height="40" as="geometry" />
        </mxCell>
        <mxCell id="_ZcJm6ZcUghAxAI16LKx-9" value="ROUTE" style="shape=ext;margin=3;double=1;whiteSpace=wrap;html=1;align=center;" vertex="1" parent="1">
          <mxGeometry x="180" y="570" width="100" height="40" as="geometry" />
        </mxCell>
        <mxCell id="_ZcJm6ZcUghAxAI16LKx-10" value="PACKAGE" style="whiteSpace=wrap;html=1;align=center;" vertex="1" parent="1">
          <mxGeometry x="20" y="480" width="100" height="40" as="geometry" />
        </mxCell>
        <mxCell id="_ZcJm6ZcUghAxAI16LKx-11" value="PLACE" style="whiteSpace=wrap;html=1;align=center;" vertex="1" parent="1">
          <mxGeometry x="175" y="720" width="100" height="40" as="geometry" />
        </mxCell>
        <mxCell id="_ZcJm6ZcUghAxAI16LKx-12" value="ADDRESS" style="whiteSpace=wrap;html=1;align=center;" vertex="1" parent="1">
          <mxGeometry x="-90" y="840" width="100" height="40" as="geometry" />
        </mxCell>
        <mxCell id="_ZcJm6ZcUghAxAI16LKx-13" value="STATION" style="whiteSpace=wrap;html=1;align=center;" vertex="1" parent="1">
          <mxGeometry x="470" y="860" width="100" height="40" as="geometry" />
        </mxCell>
        <mxCell id="_ZcJm6ZcUghAxAI16LKx-14" value="BILL" style="whiteSpace=wrap;html=1;align=center;" vertex="1" parent="1">
          <mxGeometry x="430" y="340" width="100" height="40" as="geometry" />
        </mxCell>
        <mxCell id="_ZcJm6ZcUghAxAI16LKx-18" value="VEHICLE" style="whiteSpace=wrap;html=1;align=center;" vertex="1" parent="1">
          <mxGeometry x="590" y="740" width="100" height="40" as="geometry" />
        </mxCell>
        <mxCell id="_ZcJm6ZcUghAxAI16LKx-19" style="edgeStyle=orthogonalEdgeStyle;rounded=0;orthogonalLoop=1;jettySize=auto;html=1;exitX=0.5;exitY=1;exitDx=0;exitDy=0;" edge="1" parent="1" source="_ZcJm6ZcUghAxAI16LKx-13" target="_ZcJm6ZcUghAxAI16LKx-13">
          <mxGeometry relative="1" as="geometry" />
        </mxCell>
        <mxCell id="_ZcJm6ZcUghAxAI16LKx-20" value="CREATES" style="shape=rhombus;perimeter=rhombusPerimeter;whiteSpace=wrap;html=1;align=center;" vertex="1" parent="1">
          <mxGeometry x="185" y="170" width="90" height="40" as="geometry" />
        </mxCell>
        <mxCell id="_ZcJm6ZcUghAxAI16LKx-21" value="" style="endArrow=none;html=1;rounded=0;entryX=0.5;entryY=1;entryDx=0;entryDy=0;exitX=0.5;exitY=0;exitDx=0;exitDy=0;" edge="1" parent="1" source="_ZcJm6ZcUghAxAI16LKx-20" target="_ZcJm6ZcUghAxAI16LKx-4">
          <mxGeometry relative="1" as="geometry">
            <mxPoint x="240" y="400" as="sourcePoint" />
            <mxPoint x="400" y="400" as="targetPoint" />
          </mxGeometry>
        </mxCell>
        <mxCell id="_ZcJm6ZcUghAxAI16LKx-22" value="1" style="resizable=0;html=1;whiteSpace=wrap;align=right;verticalAlign=bottom;" connectable="0" vertex="1" parent="_ZcJm6ZcUghAxAI16LKx-21">
          <mxGeometry x="1" relative="1" as="geometry">
            <mxPoint x="-10" y="20" as="offset" />
          </mxGeometry>
        </mxCell>
        <mxCell id="_ZcJm6ZcUghAxAI16LKx-23" value="" style="shape=link;html=1;rounded=0;exitX=0.5;exitY=1;exitDx=0;exitDy=0;entryX=0.5;entryY=0;entryDx=0;entryDy=0;" edge="1" parent="1" source="_ZcJm6ZcUghAxAI16LKx-20" target="_ZcJm6ZcUghAxAI16LKx-8">
          <mxGeometry relative="1" as="geometry">
            <mxPoint x="240" y="400" as="sourcePoint" />
            <mxPoint x="400" y="400" as="targetPoint" />
          </mxGeometry>
        </mxCell>
        <mxCell id="_ZcJm6ZcUghAxAI16LKx-24" value="N" style="resizable=0;html=1;whiteSpace=wrap;align=right;verticalAlign=bottom;" connectable="0" vertex="1" parent="_ZcJm6ZcUghAxAI16LKx-23">
          <mxGeometry x="1" relative="1" as="geometry">
            <mxPoint x="-10" y="-10" as="offset" />
          </mxGeometry>
        </mxCell>
        <mxCell id="_ZcJm6ZcUghAxAI16LKx-27" value="" style="shape=link;html=1;rounded=0;entryX=0.5;entryY=1;entryDx=0;entryDy=0;exitX=0.5;exitY=0;exitDx=0;exitDy=0;" edge="1" parent="1" source="_ZcJm6ZcUghAxAI16LKx-68" target="_ZcJm6ZcUghAxAI16LKx-8">
          <mxGeometry relative="1" as="geometry">
            <mxPoint x="220" y="480" as="sourcePoint" />
            <mxPoint x="390" y="490" as="targetPoint" />
          </mxGeometry>
        </mxCell>
        <mxCell id="_ZcJm6ZcUghAxAI16LKx-28" value="1" style="resizable=0;html=1;whiteSpace=wrap;align=right;verticalAlign=bottom;" connectable="0" vertex="1" parent="_ZcJm6ZcUghAxAI16LKx-27">
          <mxGeometry x="1" relative="1" as="geometry">
            <mxPoint x="-10" y="20" as="offset" />
          </mxGeometry>
        </mxCell>
        <mxCell id="_ZcJm6ZcUghAxAI16LKx-31" value="" style="shape=link;html=1;rounded=0;entryX=0.5;entryY=0;entryDx=0;entryDy=0;exitX=0.5;exitY=1;exitDx=0;exitDy=0;" edge="1" parent="1" source="_ZcJm6ZcUghAxAI16LKx-68" target="_ZcJm6ZcUghAxAI16LKx-9">
          <mxGeometry relative="1" as="geometry">
            <mxPoint x="220" y="520" as="sourcePoint" />
            <mxPoint x="310" y="480" as="targetPoint" />
          </mxGeometry>
        </mxCell>
        <mxCell id="_ZcJm6ZcUghAxAI16LKx-32" value="N" style="resizable=0;html=1;whiteSpace=wrap;align=right;verticalAlign=bottom;" connectable="0" vertex="1" parent="_ZcJm6ZcUghAxAI16LKx-31">
          <mxGeometry x="1" relative="1" as="geometry">
            <mxPoint x="-10" y="-1" as="offset" />
          </mxGeometry>
        </mxCell>
        <mxCell id="_ZcJm6ZcUghAxAI16LKx-33" value="FROM" style="shape=rhombus;perimeter=rhombusPerimeter;whiteSpace=wrap;html=1;align=center;" vertex="1" parent="1">
          <mxGeometry x="120" y="640" width="75" height="40" as="geometry" />
        </mxCell>
        <mxCell id="_ZcJm6ZcUghAxAI16LKx-34" value="TO" style="shape=rhombus;perimeter=rhombusPerimeter;whiteSpace=wrap;html=1;align=center;" vertex="1" parent="1">
          <mxGeometry x="265" y="640" width="70" height="40" as="geometry" />
        </mxCell>
        <mxCell id="_ZcJm6ZcUghAxAI16LKx-35" value="" style="shape=link;html=1;rounded=0;entryX=0;entryY=1;entryDx=0;entryDy=0;exitX=0.5;exitY=0;exitDx=0;exitDy=0;" edge="1" parent="1" source="_ZcJm6ZcUghAxAI16LKx-33" target="_ZcJm6ZcUghAxAI16LKx-9">
          <mxGeometry relative="1" as="geometry">
            <mxPoint x="240" y="660" as="sourcePoint" />
            <mxPoint x="400" y="660" as="targetPoint" />
          </mxGeometry>
        </mxCell>
        <mxCell id="_ZcJm6ZcUghAxAI16LKx-36" value="N" style="resizable=0;html=1;whiteSpace=wrap;align=right;verticalAlign=bottom;" connectable="0" vertex="1" parent="_ZcJm6ZcUghAxAI16LKx-35">
          <mxGeometry x="1" relative="1" as="geometry">
            <mxPoint x="-5" as="offset" />
          </mxGeometry>
        </mxCell>
        <mxCell id="_ZcJm6ZcUghAxAI16LKx-37" value="" style="shape=link;html=1;rounded=0;entryX=1;entryY=1;entryDx=0;entryDy=0;exitX=0.5;exitY=0;exitDx=0;exitDy=0;" edge="1" parent="1" source="_ZcJm6ZcUghAxAI16LKx-34" target="_ZcJm6ZcUghAxAI16LKx-9">
          <mxGeometry relative="1" as="geometry">
            <mxPoint x="210" y="850" as="sourcePoint" />
            <mxPoint x="370" y="850" as="targetPoint" />
          </mxGeometry>
        </mxCell>
        <mxCell id="_ZcJm6ZcUghAxAI16LKx-38" value="N" style="resizable=0;html=1;whiteSpace=wrap;align=right;verticalAlign=bottom;" connectable="0" vertex="1" parent="_ZcJm6ZcUghAxAI16LKx-37">
          <mxGeometry x="1" relative="1" as="geometry">
            <mxPoint y="20" as="offset" />
          </mxGeometry>
        </mxCell>
        <mxCell id="_ZcJm6ZcUghAxAI16LKx-39" value="" style="endArrow=none;html=1;rounded=0;entryX=0;entryY=0;entryDx=0;entryDy=0;exitX=0.5;exitY=1;exitDx=0;exitDy=0;" edge="1" parent="1" source="_ZcJm6ZcUghAxAI16LKx-33" target="_ZcJm6ZcUghAxAI16LKx-11">
          <mxGeometry relative="1" as="geometry">
            <mxPoint x="240" y="550" as="sourcePoint" />
            <mxPoint x="400" y="550" as="targetPoint" />
          </mxGeometry>
        </mxCell>
        <mxCell id="_ZcJm6ZcUghAxAI16LKx-40" value="1" style="resizable=0;html=1;whiteSpace=wrap;align=right;verticalAlign=bottom;" connectable="0" vertex="1" parent="_ZcJm6ZcUghAxAI16LKx-39">
          <mxGeometry x="1" relative="1" as="geometry">
            <mxPoint x="10" as="offset" />
          </mxGeometry>
        </mxCell>
        <mxCell id="_ZcJm6ZcUghAxAI16LKx-42" value="" style="endArrow=none;html=1;rounded=0;entryX=1;entryY=0;entryDx=0;entryDy=0;exitX=0.5;exitY=1;exitDx=0;exitDy=0;" edge="1" parent="1" source="_ZcJm6ZcUghAxAI16LKx-34" target="_ZcJm6ZcUghAxAI16LKx-11">
          <mxGeometry relative="1" as="geometry">
            <mxPoint x="148" y="690" as="sourcePoint" />
            <mxPoint x="175" y="730" as="targetPoint" />
          </mxGeometry>
        </mxCell>
        <mxCell id="_ZcJm6ZcUghAxAI16LKx-43" value="1" style="resizable=0;html=1;whiteSpace=wrap;align=right;verticalAlign=bottom;" connectable="0" vertex="1" parent="_ZcJm6ZcUghAxAI16LKx-42">
          <mxGeometry x="1" relative="1" as="geometry" />
        </mxCell>
        <mxCell id="_ZcJm6ZcUghAxAI16LKx-44" value="IN" style="shape=rhombus;perimeter=rhombusPerimeter;whiteSpace=wrap;html=1;align=center;" vertex="1" parent="1">
          <mxGeometry x="-100" y="310" width="120" height="60" as="geometry" />
        </mxCell>
        <mxCell id="_ZcJm6ZcUghAxAI16LKx-45" value="" style="shape=link;html=1;rounded=0;entryX=0;entryY=1;entryDx=0;entryDy=0;exitX=0.5;exitY=0;exitDx=0;exitDy=0;" edge="1" parent="1" source="_ZcJm6ZcUghAxAI16LKx-44" target="_ZcJm6ZcUghAxAI16LKx-4">
          <mxGeometry relative="1" as="geometry">
            <mxPoint x="100" y="410" as="sourcePoint" />
            <mxPoint x="260" y="410" as="targetPoint" />
          </mxGeometry>
        </mxCell>
        <mxCell id="_ZcJm6ZcUghAxAI16LKx-46" value="1" style="resizable=0;html=1;whiteSpace=wrap;align=right;verticalAlign=bottom;" connectable="0" vertex="1" parent="_ZcJm6ZcUghAxAI16LKx-45">
          <mxGeometry x="1" relative="1" as="geometry" />
        </mxCell>
        <mxCell id="_ZcJm6ZcUghAxAI16LKx-49" value="" style="shape=link;html=1;rounded=0;exitX=0.5;exitY=1;exitDx=0;exitDy=0;entryX=0.5;entryY=0;entryDx=0;entryDy=0;" edge="1" parent="1" source="_ZcJm6ZcUghAxAI16LKx-44" target="_ZcJm6ZcUghAxAI16LKx-12">
          <mxGeometry relative="1" as="geometry">
            <mxPoint x="80" y="410" as="sourcePoint" />
            <mxPoint x="10" y="660" as="targetPoint" />
          </mxGeometry>
        </mxCell>
        <mxCell id="_ZcJm6ZcUghAxAI16LKx-50" value="N" style="resizable=0;html=1;whiteSpace=wrap;align=right;verticalAlign=bottom;" connectable="0" vertex="1" parent="_ZcJm6ZcUghAxAI16LKx-49">
          <mxGeometry x="1" relative="1" as="geometry">
            <mxPoint x="-10" y="-1" as="offset" />
          </mxGeometry>
        </mxCell>
        <mxCell id="_ZcJm6ZcUghAxAI16LKx-51" value="WORKS_FOR" style="shape=rhombus;perimeter=rhombusPerimeter;whiteSpace=wrap;html=1;align=center;" vertex="1" parent="1">
          <mxGeometry x="460" y="470" width="120" height="60" as="geometry" />
        </mxCell>
        <mxCell id="_ZcJm6ZcUghAxAI16LKx-52" value="" style="shape=link;html=1;rounded=0;entryX=0;entryY=1;entryDx=0;entryDy=0;exitX=0.5;exitY=0;exitDx=0;exitDy=0;" edge="1" parent="1" source="_ZcJm6ZcUghAxAI16LKx-51" target="_ZcJm6ZcUghAxAI16LKx-5">
          <mxGeometry relative="1" as="geometry">
            <mxPoint x="390" y="445" as="sourcePoint" />
            <mxPoint x="550" y="445" as="targetPoint" />
          </mxGeometry>
        </mxCell>
        <mxCell id="_ZcJm6ZcUghAxAI16LKx-53" value="N" style="resizable=0;html=1;whiteSpace=wrap;align=right;verticalAlign=bottom;" connectable="0" vertex="1" parent="_ZcJm6ZcUghAxAI16LKx-52">
          <mxGeometry x="1" relative="1" as="geometry">
            <mxPoint x="-15" as="offset" />
          </mxGeometry>
        </mxCell>
        <mxCell id="_ZcJm6ZcUghAxAI16LKx-54" value="" style="shape=link;html=1;rounded=0;entryX=0.5;entryY=0;entryDx=0;entryDy=0;exitX=0.5;exitY=1;exitDx=0;exitDy=0;" edge="1" parent="1" source="_ZcJm6ZcUghAxAI16LKx-51" target="_ZcJm6ZcUghAxAI16LKx-13">
          <mxGeometry relative="1" as="geometry">
            <mxPoint x="380" y="585" as="sourcePoint" />
            <mxPoint x="540" y="585" as="targetPoint" />
          </mxGeometry>
        </mxCell>
        <mxCell id="_ZcJm6ZcUghAxAI16LKx-55" value="1" style="resizable=0;html=1;whiteSpace=wrap;align=right;verticalAlign=bottom;" connectable="0" vertex="1" parent="_ZcJm6ZcUghAxAI16LKx-54">
          <mxGeometry x="1" relative="1" as="geometry">
            <mxPoint x="-15" y="-11" as="offset" />
          </mxGeometry>
        </mxCell>
        <mxCell id="_ZcJm6ZcUghAxAI16LKx-56" value="MANAGES" style="shape=rhombus;perimeter=rhombusPerimeter;whiteSpace=wrap;html=1;align=center;" vertex="1" parent="1">
          <mxGeometry x="850" y="670" width="120" height="60" as="geometry" />
        </mxCell>
        <mxCell id="_ZcJm6ZcUghAxAI16LKx-57" value="" style="shape=link;html=1;rounded=0;entryX=1;entryY=0;entryDx=0;entryDy=0;exitX=0.5;exitY=1;exitDx=0;exitDy=0;" edge="1" parent="1" source="_ZcJm6ZcUghAxAI16LKx-56" target="_ZcJm6ZcUghAxAI16LKx-13">
          <mxGeometry relative="1" as="geometry">
            <mxPoint x="430" y="435" as="sourcePoint" />
            <mxPoint x="590" y="435" as="targetPoint" />
          </mxGeometry>
        </mxCell>
        <mxCell id="_ZcJm6ZcUghAxAI16LKx-58" value="1" style="resizable=0;html=1;whiteSpace=wrap;align=right;verticalAlign=bottom;" connectable="0" vertex="1" parent="_ZcJm6ZcUghAxAI16LKx-57">
          <mxGeometry x="1" relative="1" as="geometry" />
        </mxCell>
        <mxCell id="_ZcJm6ZcUghAxAI16LKx-59" value="" style="shape=link;html=1;rounded=0;exitX=0.5;exitY=0;exitDx=0;exitDy=0;entryX=0.5;entryY=1;entryDx=0;entryDy=0;" edge="1" parent="1" source="_ZcJm6ZcUghAxAI16LKx-56" target="_ZcJm6ZcUghAxAI16LKx-6">
          <mxGeometry relative="1" as="geometry">
            <mxPoint x="430" y="435" as="sourcePoint" />
            <mxPoint x="590" y="435" as="targetPoint" />
          </mxGeometry>
        </mxCell>
        <mxCell id="_ZcJm6ZcUghAxAI16LKx-60" value="1" style="resizable=0;html=1;whiteSpace=wrap;align=right;verticalAlign=bottom;" connectable="0" vertex="1" parent="_ZcJm6ZcUghAxAI16LKx-59">
          <mxGeometry x="1" relative="1" as="geometry" />
        </mxCell>
        <mxCell id="_ZcJm6ZcUghAxAI16LKx-62" value="HAS" style="shape=rhombus;perimeter=rhombusPerimeter;whiteSpace=wrap;html=1;align=center;" vertex="1" parent="1">
          <mxGeometry x="435" y="80" width="90" height="50" as="geometry" />
        </mxCell>
        <mxCell id="_ZcJm6ZcUghAxAI16LKx-63" value="" style="endArrow=none;html=1;rounded=0;entryX=0;entryY=0.5;entryDx=0;entryDy=0;exitX=1;exitY=0.5;exitDx=0;exitDy=0;" edge="1" parent="1" source="_ZcJm6ZcUghAxAI16LKx-4" target="_ZcJm6ZcUghAxAI16LKx-62">
          <mxGeometry relative="1" as="geometry">
            <mxPoint x="290" y="460" as="sourcePoint" />
            <mxPoint x="450" y="460" as="targetPoint" />
          </mxGeometry>
        </mxCell>
        <mxCell id="_ZcJm6ZcUghAxAI16LKx-64" value="1" style="resizable=0;html=1;whiteSpace=wrap;align=right;verticalAlign=bottom;" connectable="0" vertex="1" parent="_ZcJm6ZcUghAxAI16LKx-63">
          <mxGeometry x="1" relative="1" as="geometry" />
        </mxCell>
        <mxCell id="_ZcJm6ZcUghAxAI16LKx-65" value="" style="shape=link;html=1;rounded=0;entryX=0.5;entryY=0;entryDx=0;entryDy=0;exitX=0.5;exitY=1;exitDx=0;exitDy=0;" edge="1" parent="1" source="_ZcJm6ZcUghAxAI16LKx-62" target="_ZcJm6ZcUghAxAI16LKx-14">
          <mxGeometry relative="1" as="geometry">
            <mxPoint x="290" y="460" as="sourcePoint" />
            <mxPoint x="450" y="460" as="targetPoint" />
          </mxGeometry>
        </mxCell>
        <mxCell id="_ZcJm6ZcUghAxAI16LKx-66" value="N" style="resizable=0;html=1;whiteSpace=wrap;align=right;verticalAlign=bottom;" connectable="0" vertex="1" parent="_ZcJm6ZcUghAxAI16LKx-65">
          <mxGeometry x="1" relative="1" as="geometry">
            <mxPoint x="-5" as="offset" />
          </mxGeometry>
        </mxCell>
        <mxCell id="_ZcJm6ZcUghAxAI16LKx-67" value="IN" style="shape=rhombus;perimeter=rhombusPerimeter;whiteSpace=wrap;html=1;align=center;" vertex="1" parent="1">
          <mxGeometry x="320" y="340" width="80" height="40" as="geometry" />
        </mxCell>
        <mxCell id="_ZcJm6ZcUghAxAI16LKx-68" value="HAS" style="shape=rhombus;double=1;perimeter=rhombusPerimeter;whiteSpace=wrap;html=1;align=center;" vertex="1" parent="1">
          <mxGeometry x="185" y="470" width="90" height="50" as="geometry" />
        </mxCell>
        <mxCell id="_ZcJm6ZcUghAxAI16LKx-69" value="" style="shape=link;html=1;rounded=0;entryX=0;entryY=0.5;entryDx=0;entryDy=0;exitX=1;exitY=0.5;exitDx=0;exitDy=0;" edge="1" parent="1" source="_ZcJm6ZcUghAxAI16LKx-67" target="_ZcJm6ZcUghAxAI16LKx-14">
          <mxGeometry relative="1" as="geometry">
            <mxPoint x="270" y="560" as="sourcePoint" />
            <mxPoint x="430" y="560" as="targetPoint" />
          </mxGeometry>
        </mxCell>
        <mxCell id="_ZcJm6ZcUghAxAI16LKx-70" value="1" style="resizable=0;html=1;whiteSpace=wrap;align=right;verticalAlign=bottom;" connectable="0" vertex="1" parent="_ZcJm6ZcUghAxAI16LKx-69">
          <mxGeometry x="1" relative="1" as="geometry" />
        </mxCell>
        <mxCell id="_ZcJm6ZcUghAxAI16LKx-71" value="" style="shape=link;html=1;rounded=0;entryX=1;entryY=0.5;entryDx=0;entryDy=0;exitX=0;exitY=0.5;exitDx=0;exitDy=0;" edge="1" parent="1" source="_ZcJm6ZcUghAxAI16LKx-67" target="_ZcJm6ZcUghAxAI16LKx-8">
          <mxGeometry relative="1" as="geometry">
            <mxPoint x="270" y="560" as="sourcePoint" />
            <mxPoint x="430" y="560" as="targetPoint" />
          </mxGeometry>
        </mxCell>
        <mxCell id="_ZcJm6ZcUghAxAI16LKx-72" value="N" style="resizable=0;html=1;whiteSpace=wrap;align=right;verticalAlign=bottom;" connectable="0" vertex="1" parent="_ZcJm6ZcUghAxAI16LKx-71">
          <mxGeometry x="1" relative="1" as="geometry">
            <mxPoint x="20" as="offset" />
          </mxGeometry>
        </mxCell>
        <mxCell id="_ZcJm6ZcUghAxAI16LKx-75" value="WORKS_ON" style="shape=rhombus;perimeter=rhombusPerimeter;whiteSpace=wrap;html=1;align=center;" vertex="1" parent="1">
          <mxGeometry x="380" y="565" width="90" height="50" as="geometry" />
        </mxCell>
        <mxCell id="_ZcJm6ZcUghAxAI16LKx-76" value="" style="shape=link;html=1;rounded=0;entryX=1;entryY=0.5;entryDx=0;entryDy=0;exitX=0;exitY=0.5;exitDx=0;exitDy=0;" edge="1" parent="1" source="_ZcJm6ZcUghAxAI16LKx-75" target="_ZcJm6ZcUghAxAI16LKx-9">
          <mxGeometry relative="1" as="geometry">
            <mxPoint x="360" y="670" as="sourcePoint" />
            <mxPoint x="520" y="670" as="targetPoint" />
          </mxGeometry>
        </mxCell>
        <mxCell id="_ZcJm6ZcUghAxAI16LKx-77" value="N" style="resizable=0;html=1;whiteSpace=wrap;align=right;verticalAlign=bottom;" connectable="0" vertex="1" parent="_ZcJm6ZcUghAxAI16LKx-76">
          <mxGeometry x="1" relative="1" as="geometry">
            <mxPoint x="20" y="-10" as="offset" />
          </mxGeometry>
        </mxCell>
        <mxCell id="_ZcJm6ZcUghAxAI16LKx-78" value="" style="endArrow=none;html=1;rounded=0;entryX=0;entryY=0.5;entryDx=0;entryDy=0;exitX=1;exitY=0.5;exitDx=0;exitDy=0;" edge="1" parent="1" source="_ZcJm6ZcUghAxAI16LKx-75" target="_ZcJm6ZcUghAxAI16LKx-7">
          <mxGeometry relative="1" as="geometry">
            <mxPoint x="430" y="630" as="sourcePoint" />
            <mxPoint x="590" y="630" as="targetPoint" />
          </mxGeometry>
        </mxCell>
        <mxCell id="_ZcJm6ZcUghAxAI16LKx-79" value="1" style="resizable=0;html=1;whiteSpace=wrap;align=right;verticalAlign=bottom;" connectable="0" vertex="1" parent="_ZcJm6ZcUghAxAI16LKx-78">
          <mxGeometry x="1" relative="1" as="geometry" />
        </mxCell>
        <mxCell id="_ZcJm6ZcUghAxAI16LKx-80" value="HAS" style="shape=rhombus;perimeter=rhombusPerimeter;whiteSpace=wrap;html=1;align=center;" vertex="1" parent="1">
          <mxGeometry x="595" y="650" width="90" height="45" as="geometry" />
        </mxCell>
        <mxCell id="_ZcJm6ZcUghAxAI16LKx-81" value="" style="endArrow=none;html=1;rounded=0;entryX=0.5;entryY=1;entryDx=0;entryDy=0;exitX=0.5;exitY=0;exitDx=0;exitDy=0;" edge="1" parent="1" source="_ZcJm6ZcUghAxAI16LKx-80" target="_ZcJm6ZcUghAxAI16LKx-7">
          <mxGeometry relative="1" as="geometry">
            <mxPoint x="410" y="640" as="sourcePoint" />
            <mxPoint x="570" y="640" as="targetPoint" />
          </mxGeometry>
        </mxCell>
        <mxCell id="_ZcJm6ZcUghAxAI16LKx-82" value="M" style="resizable=0;html=1;whiteSpace=wrap;align=right;verticalAlign=bottom;" connectable="0" vertex="1" parent="_ZcJm6ZcUghAxAI16LKx-81">
          <mxGeometry x="1" relative="1" as="geometry">
            <mxPoint x="-10" y="20" as="offset" />
          </mxGeometry>
        </mxCell>
        <mxCell id="_ZcJm6ZcUghAxAI16LKx-87" value="" style="shape=link;html=1;rounded=0;entryX=0.5;entryY=0;entryDx=0;entryDy=0;exitX=0.5;exitY=1;exitDx=0;exitDy=0;" edge="1" parent="1" source="_ZcJm6ZcUghAxAI16LKx-80" target="_ZcJm6ZcUghAxAI16LKx-18">
          <mxGeometry relative="1" as="geometry">
            <mxPoint x="470" y="670" as="sourcePoint" />
            <mxPoint x="630" y="670" as="targetPoint" />
          </mxGeometry>
        </mxCell>
        <mxCell id="_ZcJm6ZcUghAxAI16LKx-88" value="N" style="resizable=0;html=1;whiteSpace=wrap;align=right;verticalAlign=bottom;" connectable="0" vertex="1" parent="_ZcJm6ZcUghAxAI16LKx-87">
          <mxGeometry x="1" relative="1" as="geometry">
            <mxPoint x="-10" as="offset" />
          </mxGeometry>
        </mxCell>
        <mxCell id="_ZcJm6ZcUghAxAI16LKx-89" value="SSN" style="ellipse;whiteSpace=wrap;html=1;align=center;fontStyle=4;" vertex="1" parent="1">
          <mxGeometry x="413" y="-170" width="100" height="40" as="geometry" />
        </mxCell>
        <mxCell id="_ZcJm6ZcUghAxAI16LKx-90" value="name" style="ellipse;whiteSpace=wrap;html=1;align=center;" vertex="1" parent="1">
          <mxGeometry x="530" y="-170" width="100" height="40" as="geometry" />
        </mxCell>
        <mxCell id="_ZcJm6ZcUghAxAI16LKx-93" value="DELIVER" style="shape=rhombus;perimeter=rhombusPerimeter;whiteSpace=wrap;html=1;align=center;" vertex="1" parent="1">
          <mxGeometry x="25" y="340" width="90" height="40" as="geometry" />
        </mxCell>
        <mxCell id="_ZcJm6ZcUghAxAI16LKx-94" value="" style="shape=link;html=1;rounded=0;entryX=0.5;entryY=1;entryDx=0;entryDy=0;exitX=0.5;exitY=0;exitDx=0;exitDy=0;" edge="1" parent="1" source="_ZcJm6ZcUghAxAI16LKx-10" target="_ZcJm6ZcUghAxAI16LKx-93">
          <mxGeometry relative="1" as="geometry">
            <mxPoint x="300" y="580" as="sourcePoint" />
            <mxPoint x="460" y="580" as="targetPoint" />
          </mxGeometry>
        </mxCell>
        <mxCell id="_ZcJm6ZcUghAxAI16LKx-95" value="N" style="resizable=0;html=1;whiteSpace=wrap;align=right;verticalAlign=bottom;" connectable="0" vertex="1" parent="_ZcJm6ZcUghAxAI16LKx-94">
          <mxGeometry x="1" relative="1" as="geometry">
            <mxPoint x="-10" y="20" as="offset" />
          </mxGeometry>
        </mxCell>
        <mxCell id="_ZcJm6ZcUghAxAI16LKx-98" value="" style="shape=link;html=1;rounded=0;entryX=0;entryY=0.5;entryDx=0;entryDy=0;exitX=1;exitY=0.5;exitDx=0;exitDy=0;" edge="1" parent="1" source="_ZcJm6ZcUghAxAI16LKx-93" target="_ZcJm6ZcUghAxAI16LKx-8">
          <mxGeometry relative="1" as="geometry">
            <mxPoint x="220" y="520" as="sourcePoint" />
            <mxPoint x="380" y="520" as="targetPoint" />
          </mxGeometry>
        </mxCell>
        <mxCell id="_ZcJm6ZcUghAxAI16LKx-99" value="1" style="resizable=0;html=1;whiteSpace=wrap;align=right;verticalAlign=bottom;" connectable="0" vertex="1" parent="_ZcJm6ZcUghAxAI16LKx-98">
          <mxGeometry x="1" relative="1" as="geometry" />
        </mxCell>
        <mxCell id="_ZcJm6ZcUghAxAI16LKx-118" value="" style="shape=link;html=1;rounded=0;exitX=0.5;exitY=0;exitDx=0;exitDy=0;entryX=0.5;entryY=1;entryDx=0;entryDy=0;" edge="1" parent="1" source="_ZcJm6ZcUghAxAI16LKx-119" target="_ZcJm6ZcUghAxAI16LKx-3">
          <mxGeometry relative="1" as="geometry">
            <mxPoint x="530" y="80" as="sourcePoint" />
            <mxPoint x="540" y="-30" as="targetPoint" />
          </mxGeometry>
        </mxCell>
        <mxCell id="_ZcJm6ZcUghAxAI16LKx-119" value="d" style="ellipse;whiteSpace=wrap;html=1;aspect=fixed;" vertex="1" parent="1">
          <mxGeometry x="505" y="10" width="30" height="30" as="geometry" />
        </mxCell>
        <mxCell id="_ZcJm6ZcUghAxAI16LKx-120" value="" style="endArrow=none;html=1;rounded=0;entryX=0;entryY=1;entryDx=0;entryDy=0;exitX=1;exitY=0;exitDx=0;exitDy=0;" edge="1" parent="1" target="_ZcJm6ZcUghAxAI16LKx-119" source="_ZcJm6ZcUghAxAI16LKx-4">
          <mxGeometry relative="1" as="geometry">
            <mxPoint x="500" y="100" as="sourcePoint" />
            <mxPoint x="690" y="160" as="targetPoint" />
          </mxGeometry>
        </mxCell>
        <mxCell id="_ZcJm6ZcUghAxAI16LKx-121" value="" style="endArrow=none;html=1;rounded=0;entryX=1;entryY=1;entryDx=0;entryDy=0;exitX=0.5;exitY=0;exitDx=0;exitDy=0;" edge="1" parent="1" target="_ZcJm6ZcUghAxAI16LKx-119" source="_ZcJm6ZcUghAxAI16LKx-5">
          <mxGeometry relative="1" as="geometry">
            <mxPoint x="560" y="100" as="sourcePoint" />
            <mxPoint x="404" y="106" as="targetPoint" />
          </mxGeometry>
        </mxCell>
        <mxCell id="_ZcJm6ZcUghAxAI16LKx-124" value="" style="shape=link;html=1;rounded=0;exitX=0.5;exitY=0;exitDx=0;exitDy=0;entryX=0.5;entryY=1;entryDx=0;entryDy=0;" edge="1" parent="1" source="_ZcJm6ZcUghAxAI16LKx-125" target="_ZcJm6ZcUghAxAI16LKx-5">
          <mxGeometry relative="1" as="geometry">
            <mxPoint x="775" y="260" as="sourcePoint" />
            <mxPoint x="760" y="170" as="targetPoint" />
          </mxGeometry>
        </mxCell>
        <mxCell id="_ZcJm6ZcUghAxAI16LKx-125" value="d" style="ellipse;whiteSpace=wrap;html=1;aspect=fixed;" vertex="1" parent="1">
          <mxGeometry x="770" y="460" width="30" height="30" as="geometry" />
        </mxCell>
        <mxCell id="_ZcJm6ZcUghAxAI16LKx-126" value="" style="endArrow=none;html=1;rounded=0;entryX=0;entryY=1;entryDx=0;entryDy=0;exitX=1;exitY=0;exitDx=0;exitDy=0;" edge="1" parent="1" target="_ZcJm6ZcUghAxAI16LKx-125" source="_ZcJm6ZcUghAxAI16LKx-7">
          <mxGeometry relative="1" as="geometry">
            <mxPoint x="685" y="340" as="sourcePoint" />
            <mxPoint x="1045" y="380" as="targetPoint" />
          </mxGeometry>
        </mxCell>
        <mxCell id="_ZcJm6ZcUghAxAI16LKx-127" value="" style="endArrow=none;html=1;rounded=0;entryX=1;entryY=1;entryDx=0;entryDy=0;exitX=0;exitY=0;exitDx=0;exitDy=0;" edge="1" parent="1" target="_ZcJm6ZcUghAxAI16LKx-125" source="_ZcJm6ZcUghAxAI16LKx-6">
          <mxGeometry relative="1" as="geometry">
            <mxPoint x="835" y="350" as="sourcePoint" />
            <mxPoint x="759" y="326" as="targetPoint" />
          </mxGeometry>
        </mxCell>
        <mxCell id="_ZcJm6ZcUghAxAI16LKx-132" value="" style="shape=link;html=1;rounded=0;exitX=0.5;exitY=0;exitDx=0;exitDy=0;entryX=0.5;entryY=1;entryDx=0;entryDy=0;" edge="1" parent="1" source="_ZcJm6ZcUghAxAI16LKx-133" target="_ZcJm6ZcUghAxAI16LKx-11">
          <mxGeometry relative="1" as="geometry">
            <mxPoint x="230" y="860" as="sourcePoint" />
            <mxPoint x="215" y="770" as="targetPoint" />
          </mxGeometry>
        </mxCell>
        <mxCell id="_ZcJm6ZcUghAxAI16LKx-133" value="u" style="ellipse;whiteSpace=wrap;html=1;aspect=fixed;" vertex="1" parent="1">
          <mxGeometry x="210" y="790" width="30" height="30" as="geometry" />
        </mxCell>
        <mxCell id="_ZcJm6ZcUghAxAI16LKx-134" value="" style="endArrow=none;html=1;rounded=0;entryX=0;entryY=1;entryDx=0;entryDy=0;exitX=1;exitY=0;exitDx=0;exitDy=0;" edge="1" parent="1" target="_ZcJm6ZcUghAxAI16LKx-133" source="_ZcJm6ZcUghAxAI16LKx-12">
          <mxGeometry relative="1" as="geometry">
            <mxPoint x="140" y="940" as="sourcePoint" />
            <mxPoint x="500" y="980" as="targetPoint" />
          </mxGeometry>
        </mxCell>
        <mxCell id="_ZcJm6ZcUghAxAI16LKx-135" value="" style="endArrow=none;html=1;rounded=0;entryX=1;entryY=1;entryDx=0;entryDy=0;exitX=0;exitY=0;exitDx=0;exitDy=0;" edge="1" parent="1" target="_ZcJm6ZcUghAxAI16LKx-133" source="_ZcJm6ZcUghAxAI16LKx-13">
          <mxGeometry relative="1" as="geometry">
            <mxPoint x="290" y="950" as="sourcePoint" />
            <mxPoint x="214" y="926" as="targetPoint" />
          </mxGeometry>
        </mxCell>
        <mxCell id="_ZcJm6ZcUghAxAI16LKx-140" value="email" style="ellipse;whiteSpace=wrap;html=1;align=center;" vertex="1" parent="1">
          <mxGeometry x="640" y="-120" width="100" height="40" as="geometry" />
        </mxCell>
        <mxCell id="_ZcJm6ZcUghAxAI16LKx-141" value="phone_number" style="ellipse;whiteSpace=wrap;html=1;align=center;" vertex="1" parent="1">
          <mxGeometry x="650" y="-40" width="100" height="40" as="geometry" />
        </mxCell>
        <mxCell id="_ZcJm6ZcUghAxAI16LKx-142" value="" style="endArrow=none;html=1;rounded=0;entryX=0.5;entryY=1;entryDx=0;entryDy=0;exitX=0.25;exitY=0;exitDx=0;exitDy=0;" edge="1" parent="1" source="_ZcJm6ZcUghAxAI16LKx-3" target="_ZcJm6ZcUghAxAI16LKx-89">
          <mxGeometry relative="1" as="geometry">
            <mxPoint x="520" y="120" as="sourcePoint" />
            <mxPoint x="680" y="120" as="targetPoint" />
          </mxGeometry>
        </mxCell>
        <mxCell id="_ZcJm6ZcUghAxAI16LKx-143" value="" style="endArrow=none;html=1;rounded=0;entryX=0;entryY=1;entryDx=0;entryDy=0;exitX=0.5;exitY=0;exitDx=0;exitDy=0;" edge="1" parent="1" source="_ZcJm6ZcUghAxAI16LKx-3" target="_ZcJm6ZcUghAxAI16LKx-90">
          <mxGeometry relative="1" as="geometry">
            <mxPoint x="505" y="-70" as="sourcePoint" />
            <mxPoint x="473" y="-120" as="targetPoint" />
          </mxGeometry>
        </mxCell>
        <mxCell id="_ZcJm6ZcUghAxAI16LKx-144" value="" style="endArrow=none;html=1;rounded=0;entryX=0;entryY=0.5;entryDx=0;entryDy=0;exitX=1;exitY=0;exitDx=0;exitDy=0;" edge="1" parent="1" source="_ZcJm6ZcUghAxAI16LKx-3" target="_ZcJm6ZcUghAxAI16LKx-140">
          <mxGeometry relative="1" as="geometry">
            <mxPoint x="515" y="-60" as="sourcePoint" />
            <mxPoint x="483" y="-110" as="targetPoint" />
          </mxGeometry>
        </mxCell>
        <mxCell id="_ZcJm6ZcUghAxAI16LKx-145" value="" style="endArrow=none;html=1;rounded=0;entryX=0;entryY=0.5;entryDx=0;entryDy=0;exitX=1;exitY=0.75;exitDx=0;exitDy=0;" edge="1" parent="1" source="_ZcJm6ZcUghAxAI16LKx-3" target="_ZcJm6ZcUghAxAI16LKx-141">
          <mxGeometry relative="1" as="geometry">
            <mxPoint x="525" y="-50" as="sourcePoint" />
            <mxPoint x="493" y="-100" as="targetPoint" />
          </mxGeometry>
        </mxCell>
        <mxCell id="_ZcJm6ZcUghAxAI16LKx-146" value="salary" style="ellipse;whiteSpace=wrap;html=1;align=center;" vertex="1" parent="1">
          <mxGeometry x="835" y="230" width="100" height="40" as="geometry" />
        </mxCell>
        <mxCell id="_ZcJm6ZcUghAxAI16LKx-147" value="" style="endArrow=none;html=1;rounded=0;entryX=0.243;entryY=0.992;entryDx=0;entryDy=0;entryPerimeter=0;exitX=0.75;exitY=0;exitDx=0;exitDy=0;" edge="1" parent="1" source="_ZcJm6ZcUghAxAI16LKx-5" target="_ZcJm6ZcUghAxAI16LKx-146">
          <mxGeometry relative="1" as="geometry">
            <mxPoint x="510" y="440" as="sourcePoint" />
            <mxPoint x="670" y="440" as="targetPoint" />
          </mxGeometry>
        </mxCell>
        <mxCell id="_ZcJm6ZcUghAxAI16LKx-149" value="" style="endArrow=none;html=1;rounded=0;entryX=0;entryY=0.5;entryDx=0;entryDy=0;exitX=1;exitY=0.5;exitDx=0;exitDy=0;" edge="1" parent="1" source="_ZcJm6ZcUghAxAI16LKx-5" target="_ZcJm6ZcUghAxAI16LKx-150">
          <mxGeometry relative="1" as="geometry">
            <mxPoint x="550" y="540" as="sourcePoint" />
            <mxPoint x="870" y="330" as="targetPoint" />
          </mxGeometry>
        </mxCell>
        <mxCell id="_ZcJm6ZcUghAxAI16LKx-150" value="work_days" style="ellipse;shape=doubleEllipse;margin=3;whiteSpace=wrap;html=1;align=center;" vertex="1" parent="1">
          <mxGeometry x="870" y="310" width="100" height="40" as="geometry" />
        </mxCell>
        <mxCell id="_ZcJm6ZcUghAxAI16LKx-151" value="level" style="ellipse;whiteSpace=wrap;html=1;align=center;" vertex="1" parent="1">
          <mxGeometry x="930" y="490" width="100" height="40" as="geometry" />
        </mxCell>
        <mxCell id="_ZcJm6ZcUghAxAI16LKx-152" value="" style="endArrow=none;html=1;rounded=0;entryX=0.5;entryY=1;entryDx=0;entryDy=0;exitX=0.75;exitY=0;exitDx=0;exitDy=0;" edge="1" parent="1" source="_ZcJm6ZcUghAxAI16LKx-6" target="_ZcJm6ZcUghAxAI16LKx-151">
          <mxGeometry relative="1" as="geometry">
            <mxPoint x="580" y="550" as="sourcePoint" />
            <mxPoint x="740" y="550" as="targetPoint" />
          </mxGeometry>
        </mxCell>
        <mxCell id="_ZcJm6ZcUghAxAI16LKx-153" value="years_of_exp" style="ellipse;whiteSpace=wrap;html=1;align=center;" vertex="1" parent="1">
          <mxGeometry x="610" y="510" width="100" height="40" as="geometry" />
        </mxCell>
        <mxCell id="_ZcJm6ZcUghAxAI16LKx-154" value="" style="endArrow=none;html=1;rounded=0;entryX=0.4;entryY=0.983;entryDx=0;entryDy=0;entryPerimeter=0;exitX=0.5;exitY=0;exitDx=0;exitDy=0;" edge="1" parent="1" source="_ZcJm6ZcUghAxAI16LKx-7" target="_ZcJm6ZcUghAxAI16LKx-153">
          <mxGeometry relative="1" as="geometry">
            <mxPoint x="480" y="570" as="sourcePoint" />
            <mxPoint x="640" y="570" as="targetPoint" />
          </mxGeometry>
        </mxCell>
        <mxCell id="_ZcJm6ZcUghAxAI16LKx-156" value="licences" style="ellipse;shape=doubleEllipse;margin=3;whiteSpace=wrap;html=1;align=center;" vertex="1" parent="1">
          <mxGeometry x="710" y="565" width="100" height="40" as="geometry" />
        </mxCell>
        <mxCell id="_ZcJm6ZcUghAxAI16LKx-157" value="" style="endArrow=none;html=1;rounded=0;entryX=0;entryY=0.5;entryDx=0;entryDy=0;exitX=1;exitY=0.5;exitDx=0;exitDy=0;" edge="1" parent="1" source="_ZcJm6ZcUghAxAI16LKx-7" target="_ZcJm6ZcUghAxAI16LKx-156">
          <mxGeometry relative="1" as="geometry">
            <mxPoint x="430" y="610" as="sourcePoint" />
            <mxPoint x="590" y="610" as="targetPoint" />
          </mxGeometry>
        </mxCell>
        <mxCell id="_ZcJm6ZcUghAxAI16LKx-159" value="type" style="ellipse;whiteSpace=wrap;html=1;align=center;" vertex="1" parent="1">
          <mxGeometry x="-220" y="900" width="100" height="40" as="geometry" />
        </mxCell>
        <mxCell id="_ZcJm6ZcUghAxAI16LKx-160" value="registered_status" style="ellipse;whiteSpace=wrap;html=1;align=center;" vertex="1" parent="1">
          <mxGeometry x="700" y="695" width="100" height="40" as="geometry" />
        </mxCell>
        <mxCell id="_ZcJm6ZcUghAxAI16LKx-161" value="" style="endArrow=none;html=1;rounded=0;exitX=1;exitY=0;exitDx=0;exitDy=0;" edge="1" parent="1" source="_ZcJm6ZcUghAxAI16LKx-18" target="_ZcJm6ZcUghAxAI16LKx-160">
          <mxGeometry relative="1" as="geometry">
            <mxPoint x="440" y="720" as="sourcePoint" />
            <mxPoint x="600" y="720" as="targetPoint" />
          </mxGeometry>
        </mxCell>
      </root>
    </mxGraphModel>
  </diagram>
</mxfile>
